<?xml version="1.0" standalone="no"?>
<!DOCTYPE svg PUBLIC "-//W3C//DTD SVG 20010904//EN"
 "http://www.w3.org/TR/2001/REC-SVG-20010904/DTD/svg10.dtd">
<svg version="1.0" xmlns="http://www.w3.org/2000/svg"
 width="576.000000pt" height="576.000000pt" viewBox="0 0 576.000000 576.000000"
 preserveAspectRatio="xMidYMid meet">

<g transform="translate(0.000000,576.000000) scale(0.100000,-0.100000)"
fill="#fff" stroke="none">
<path fill="#f83b22" d="M3885 4299 c-46 -51 -74 -112 -75 -160 0 -19 12 -60 28 -90 21 -42
36 -58 69 -74 38 -17 43 -24 49 -63 14 -91 -12 -246 -55 -330 -12 -24 -20 -46
-18 -49 8 -8 56 99 72 162 9 34 15 102 15 161 0 90 2 103 21 120 30 27 66 93
74 135 11 58 -10 112 -66 173 -28 31 -57 56 -64 56 -7 0 -29 -19 -50 -41z m90
-69 c16 -31 19 -112 5 -145 -6 -16 -9 -17 -13 -5 -8 21 -18 180 -12 180 2 0
11 -13 20 -30z m-99 -67 c4 -16 18 -52 31 -82 28 -65 18 -89 -22 -51 -14 13
-23 26 -20 28 3 3 17 -5 31 -19 25 -23 25 -23 -4 26 -33 54 -52 125 -33 125 6
0 14 -12 17 -27z m145 -100 c-25 -47 -27 -27 -3 46 16 52 17 54 20 24 2 -18
-6 -48 -17 -70z"/>
<path fill="#e72726" d="M1995 4296 c-53 -24 -78 -60 -83 -121 -7 -86 26 -142 151 -256 116
-105 152 -144 193 -211 l30 -48 28 54 c16 30 71 101 124 158 95 104 152 196
152 248 0 41 -18 92 -41 116 -63 67 -196 19 -249 -91 -12 -25 -23 -45 -25 -45
-2 0 -19 29 -39 64 -42 75 -91 121 -143 135 -48 14 -61 13 -98 -3z m-15 -116
c0 -52 28 -90 162 -222 l130 -126 63 66 c35 37 66 64 69 61 3 -3 -23 -39 -59
-80 -35 -41 -65 -80 -65 -86 0 -22 -15 -14 -32 15 -10 16 -54 62 -100 103
-186 166 -212 203 -194 274 9 35 26 31 26 -5z"/>
<path fill="#1f7a3a" d="M3435 4289 c-16 -4 -57 -13 -90 -19 -52 -10 -67 -19 -107 -61 -49
-50 -62 -77 -30 -64 53 22 120 47 137 52 43 10 -39 -45 -84 -58 -65 -17 -70
-26 -21 -39 79 -21 142 2 184 69 22 35 52 119 44 126 -2 1 -16 -1 -33 -6z"/>
<path fill="#d45134" d="M3074 4097 c-76 -27 -153 -77 -183 -117 -30 -41 -21 -50 11 -12 40
48 105 89 176 112 37 12 74 26 82 31 29 17 -23 8 -86 -14z"/>
<path fill="#c80c34" d="M4185 3941 c-91 -41 -141 -127 -133 -226 l5 -56 -72 -62 c-39 -34
-86 -74 -105 -88 -19 -15 -32 -30 -29 -33 5 -5 58 29 190 123 44 31 48 32 89
21 58 -16 103 -6 146 32 55 48 84 115 84 191 0 88 -22 117 -88 117 -26 0 -65
-9 -87 -19z m61 -68 c-34 -64 -158 -194 -173 -180 -3 4 23 37 59 74 35 37 75
83 87 101 27 39 47 43 27 5z m-143 -68 c-3 -9 -8 -14 -10 -11 -3 3 -2 9 2 15
9 16 15 13 8 -4z m173 -71 c-11 -8 -29 -14 -40 -14 -16 1 -13 5 14 19 39 20
55 17 26 -5z m-36 -74 c-8 -5 -26 -9 -40 -9 -23 0 -23 1 -5 9 11 5 29 9 40 9
17 1 17 -1 5 -9z"/>
<path fill="#cc051a" d="M3014 3855 c-23 -17 -14 -19 20 -4 33 16 76 -2 116 -48 33 -37 38
-58 16 -70 -59 -35 -43 -151 27 -193 41 -25 78 -25 110 0 14 11 32 20 41 20
27 0 49 58 43 114 -4 41 -10 55 -41 83 -39 36 -68 41 -119 19 -32 -13 -33 -12
-56 24 -40 64 -112 89 -157 55z"/>
<path fill="#810000" d="M2805 3776 c-45 -19 -90 -69 -119 -129 -26 -55 -66 -196 -66 -232 0
-36 -20 -45 -98 -45 l-74 0 5 29 c3 15 9 51 13 78 6 45 4 52 -17 67 -13 9 -41
16 -61 16 -32 0 -41 -5 -57 -31 -11 -18 -27 -63 -36 -100 -17 -67 -17 -68 -53
-71 -46 -4 -52 -23 -13 -45 21 -12 31 -26 32 -43 l1 -25 7 25 c6 21 15 26 56
32 27 4 51 5 53 3 3 -2 -1 -35 -8 -72 -8 -37 -14 -102 -14 -143 -1 -61 3 -82
22 -114 13 -21 21 -40 19 -42 -2 -2 -17 -6 -33 -10 -35 -7 -79 23 -101 70
l-14 31 5 -35 c7 -39 51 -86 91 -96 66 -17 155 35 155 91 l0 26 -36 -27 c-40
-31 -48 -26 -60 36 -6 29 12 179 32 265 4 16 21 24 82 38 42 9 80 17 85 17 11
0 8 -310 -4 -352 -10 -38 -44 -59 -68 -43 -19 11 -12 -14 9 -35 15 -15 28 -19
48 -14 38 9 40 11 57 94 36 176 97 286 145 260 29 -15 33 -64 16 -179 -28
-182 -21 -201 61 -185 51 10 71 34 28 34 -20 0 -29 8 -41 36 -13 30 -13 50 -3
133 18 151 -3 214 -71 214 -28 0 -42 -9 -77 -47 l-43 -48 0 60 c0 85 10 103
78 145 110 68 222 216 222 293 0 17 -9 43 -21 58 -16 21 -29 26 -62 26 -23 -1
-56 -7 -72 -14z m109 -22 c42 -42 -2 -155 -94 -244 -64 -62 -140 -110 -140
-88 0 22 36 151 54 192 23 55 61 102 104 131 44 29 56 30 76 9z m-512 -238
c16 -24 -3 -154 -25 -168 -6 -4 -31 -8 -54 -8 l-42 0 24 86 c13 47 29 92 36
100 13 15 48 10 61 -10z"/>
<path fill="#1a863d" d="M3671 3753 c-9 -18 -14 -58 -12 -104 1 -17 16 -41 41 -65 22 -22 40
-45 40 -52 0 -7 5 -10 11 -6 8 4 8 9 0 17 -6 6 -11 27 -11 47 0 19 -4 50 -9
68 -7 24 -7 32 1 30 18 -6 39 -79 33 -113 l-5 -30 15 30 c34 71 11 146 -55
180 -36 19 -37 19 -49 -2z"/>
<path fill="#810000" d="M1591 3484 c-83 -42 -162 -166 -176 -275 -4 -39 -3 -38 10 13 14 58
47 128 84 182 28 42 98 86 136 86 l32 0 -38 -39 c-62 -66 -107 -216 -95 -319
8 -65 37 -126 72 -149 24 -15 25 -17 8 -24 -28 -11 -113 -10 -134 1 -34 18
-64 73 -77 139 l-12 66 4 -58 c11 -129 92 -207 215 -207 63 0 106 18 157 64
l40 35 21 -29 c13 -16 39 -34 60 -41 43 -13 83 1 138 46 l32 26 21 -44 c22
-45 53 -67 95 -67 41 0 49 22 25 74 -18 43 -20 58 -13 174 l7 128 -28 12 c-18
8 -31 10 -38 3 -6 -6 -23 -3 -46 10 -35 18 -40 18 -89 4 -54 -16 -114 -61
-133 -99 -6 -11 3 -4 21 17 17 20 45 44 62 53 l30 16 -26 -34 c-58 -76 -71
-158 -36 -215 25 -42 43 -44 29 -3 -13 34 0 81 38 148 27 48 79 78 119 68 26
-7 30 -21 39 -159 3 -49 12 -101 20 -117 23 -45 20 -62 -12 -58 -44 5 -68 49
-66 123 2 79 -16 92 -51 37 -32 -51 -108 -112 -140 -112 -14 0 -36 10 -47 21
-18 18 -21 30 -17 78 3 31 8 65 12 76 l8 20 -13 -20 c-28 -46 -103 -127 -131
-141 -58 -30 -99 4 -114 92 -14 90 41 257 106 319 39 37 53 25 60 -53 4 -49 8
-57 27 -60 18 -3 23 3 29 32 14 77 -21 143 -92 172 -47 20 -73 18 -133 -12z"/>
<path fill="#810000" d="M3583 3403 c-10 -10 -14 -15 -9 -10 19 14 45 7 57 -15 10 -18 8 -24
-11 -40 -21 -17 -24 -17 -41 -2 -28 25 -23 1 6 -30 30 -33 59 -33 91 0 20 19
24 31 19 52 -13 54 -75 79 -112 45z"/>
<path fill="#810000" d="M3243 3300 c-17 -7 -23 -17 -22 -37 2 -24 2 -25 6 -5 3 15 11 22 28
22 51 0 55 -6 55 -98 0 -85 -15 -197 -29 -220 -4 -6 -18 -13 -31 -14 -20 -2
-26 3 -31 27 -6 27 -7 28 -8 5 0 -14 8 -40 19 -57 15 -26 27 -33 50 -33 39 0
47 20 56 142 6 75 13 104 38 152 30 57 87 108 104 92 3 -4 -1 -29 -11 -55 -22
-63 -22 -81 2 -81 29 0 61 47 61 90 0 48 -24 70 -78 70 -32 0 -47 -6 -70 -30
-30 -30 -42 -30 -42 1 0 16 -13 23 -60 34 -8 2 -25 0 -37 -5z"/>
<path fill="#810000" d="M3034 3293 c-7 -4 -22 -28 -35 -53 -20 -38 -24 -60 -24 -136 0 -95 8
-118 50 -134 18 -7 16 -10 -17 -24 -49 -21 -55 -20 -83 9 -14 13 -25 20 -25
14 0 -20 48 -58 86 -68 76 -20 163 25 195 101 20 48 -3 58 -42 19 -71 -72
-130 -57 -117 30 2 19 11 25 47 31 80 14 120 51 121 114 0 54 -40 94 -102 101
-24 2 -48 0 -54 -4z m116 -88 c0 -39 -33 -66 -107 -89 -19 -6 -23 -4 -23 16 1
33 35 104 56 116 28 15 74 -12 74 -43z"/>
<path fill="#810000" d="M3747 3283 c-4 -3 -6 -22 -6 -42 2 -30 3 -32 6 -8 3 21 10 27 28 27
42 0 55 -86 35 -234 -9 -76 -14 -84 -50 -88 -20 -2 -25 3 -31 27 -6 29 -7 29
-8 -7 -3 -90 96 -107 118 -20 5 20 15 71 21 112 24 145 63 215 109 190 26 -13
35 -59 31 -150 -1 -41 -3 -104 -4 -140 -1 -65 -1 -65 28 -68 18 -2 40 4 58 18
l28 21 43 -26 c54 -31 122 -33 176 -6 39 20 71 59 71 86 0 21 -16 19 -53 -9
-18 -12 -39 -26 -48 -29 -27 -9 -59 20 -59 54 0 23 4 29 23 29 32 1 98 33 125
62 29 31 38 88 22 128 -16 39 -67 70 -117 70 -45 0 -124 -45 -143 -81 -8 -15
-1 -10 23 13 28 29 77 56 77 43 0 -2 -12 -27 -27 -56 -34 -69 -44 -185 -19
-224 9 -14 29 -30 44 -36 21 -8 23 -12 12 -19 -8 -6 -32 -10 -53 -10 -29 0
-46 7 -68 29 -26 27 -29 36 -29 95 0 35 5 77 11 93 8 23 8 26 -3 15 -9 -9 -13
-44 -14 -105 -2 -90 -2 -91 -28 -100 -15 -5 -30 -7 -33 -3 -3 3 0 54 7 113 15
130 5 174 -49 210 -43 29 -69 29 -113 -1 l-35 -23 -10 28 c-10 25 -17 29 -50
29 -22 0 -43 -3 -46 -7z m611 -65 c19 -19 14 -73 -10 -103 -20 -25 -73 -55
-98 -55 -25 0 0 97 36 140 27 32 52 38 72 18z"/>
<path fill="#810000" d="M2950 3243 c-34 -38 -63 -98 -58 -115 2 -6 10 8 16 31 7 22 30 59 51
81 21 22 35 40 30 40 -4 0 -21 -17 -39 -37z"/>
<path fill="#810000" d="M3566 3235 c-22 -22 -20 -28 4 -13 35 22 43 0 31 -80 -13 -87 -14
-153 -2 -185 9 -23 7 -25 -27 -30 -49 -8 -60 5 -65 71 l-3 57 -2 -62 c-2 -56
0 -64 24 -82 32 -25 110 -29 140 -6 19 14 18 15 -6 34 l-25 20 18 121 c18 122
14 160 -16 160 -7 0 -21 3 -33 6 -13 3 -28 -1 -38 -11z"/>
<path fill="#810000" d="M2252 3215 c0 -16 2 -22 5 -12 2 9 2 23 0 30 -3 6 -5 -1 -5 -18z"/>
<path fill="#810000" d="M3213 3190 c0 -25 2 -35 4 -22 2 12 2 32 0 45 -2 12 -4 2 -4 -23z"/>
<path fill="#810000" d="M2243 3105 c0 -22 2 -30 4 -17 2 12 2 30 0 40 -3 9 -5 -1 -4 -23z"/>
<path fill="#810000" d="M2881 3065 c0 -27 3 -56 8 -63 5 -8 6 8 4 40 -6 73 -11 83 -12 23z"/>
<path fill="#810000" d="M3213 3055 c0 -27 2 -38 4 -22 2 15 2 37 0 50 -2 12 -4 0 -4 -28z"/>
<path fill="#810000" d="M2013 2806 c-67 -32 -93 -72 -93 -143 0 -62 7 -83 27 -83 20 0 14
-68 -23 -246 -25 -124 -26 -127 -7 -146 27 -26 82 -33 125 -15 41 17 52 43 64
155 4 34 10 62 14 62 4 0 15 -20 24 -44 22 -58 77 -129 119 -155 43 -26 107
-28 138 -2 38 30 18 68 -85 157 -49 43 -85 79 -80 80 5 1 21 5 36 8 61 14 138
112 138 176 0 32 -35 108 -63 138 -71 77 -235 105 -334 58z m188 -17 c77 -24
139 -97 139 -166 0 -60 -85 -141 -165 -157 -50 -10 -55 0 -39 79 8 39 14 88
12 110 -2 33 -7 41 -25 43 -13 2 -23 1 -23 -1 0 -26 -53 -411 -61 -440 -7 -26
-18 -41 -35 -47 -39 -15 -74 -12 -81 7 -4 9 4 68 16 129 13 62 29 177 36 256
7 79 14 144 14 144 1 1 22 11 49 22 80 34 107 37 163 21z m-39 -365 c17 -9 64
-47 104 -85 51 -48 81 -69 98 -69 19 0 26 -5 26 -19 0 -49 -95 -68 -144 -30
-34 26 -78 92 -100 149 -10 25 -20 51 -23 58 -7 16 2 15 39 -4z"/>
<path fill="#810000" d="M3100 2795 c-11 -13 -10 -14 2 -10 20 8 41 -20 33 -45 -8 -25 -30
-26 -44 -2 -9 14 -10 15 -11 1 0 -21 32 -49 56 -49 49 0 61 65 18 99 -32 25
-38 26 -54 6z"/>
<path fill="#be0626" d="M1648 2676 c-6 -15 -21 -26 -36 -28 -37 -4 -51 -32 -29 -56 19 -20
126 -66 135 -57 12 12 14 107 2 135 -16 39 -55 42 -72 6z"/>
<path fill="#810000" d="M2520 2639 c-46 -18 -133 -119 -117 -135 2 -3 10 9 17 26 12 29 82
100 98 100 5 0 -3 -24 -17 -52 -21 -43 -26 -67 -26 -131 0 -75 1 -80 31 -107
17 -15 38 -30 45 -33 21 -8 -7 -24 -55 -33 -54 -9 -92 29 -105 106 -5 35 -9
44 -10 25 -3 -79 51 -159 114 -171 44 -8 98 11 141 48 31 28 44 65 28 81 -4 4
-20 -5 -36 -18 -47 -40 -104 -28 -110 23 -3 20 5 26 52 42 32 11 66 31 82 49
80 90 -19 225 -132 180z m118 -82 c2 -16 -4 -39 -13 -53 -17 -27 -100 -72
-111 -61 -9 9 22 90 48 122 28 36 72 32 76 -8z"/>
<path fill="#810000" d="M2763 2604 c-40 -38 -41 -40 -5 -10 23 20 46 36 51 36 6 0 -2 -26
-17 -57 -21 -45 -27 -73 -27 -129 0 -62 3 -75 29 -108 32 -43 44 -43 21 0 -20
39 -19 69 5 148 24 77 58 123 85 112 14 -5 17 -14 13 -51 -5 -39 -3 -45 13
-45 22 0 34 38 25 76 -12 46 -50 74 -100 74 -39 0 -50 -5 -93 -46z"/>
<path fill="#810000" d="M3683 2626 c-47 -22 -103 -82 -103 -111 0 -5 8 4 19 20 21 34 58 69
82 78 13 4 9 -9 -14 -55 -28 -54 -32 -70 -32 -148 0 -76 3 -92 23 -119 l23
-31 -26 0 c-30 0 -64 16 -83 39 -11 14 -12 13 -3 -6 25 -51 122 -89 185 -72
67 19 114 75 94 113 -9 17 -12 16 -42 -13 -17 -17 -47 -36 -65 -42 -31 -11
-36 -10 -53 11 -10 12 -18 37 -18 56 0 32 2 34 33 34 47 0 135 46 152 81 34
66 6 147 -61 175 -44 18 -50 18 -111 -10z m135 -48 c33 -33 -1 -99 -68 -133
-85 -43 -95 -34 -56 51 35 76 92 114 124 82z"/>
<path fill="#810000" d="M3049 2624 c-11 -14 -10 -16 11 -12 l25 3 -3 -125 c-3 -78 0 -136 7
-154 9 -23 9 -31 -1 -38 -24 -14 -76 -9 -87 10 -9 14 -10 15 -11 1 0 -8 12
-26 26 -40 21 -19 36 -24 79 -23 29 0 60 6 69 13 18 15 23 66 6 56 -39 -24
-53 81 -25 185 20 73 19 110 -2 126 -25 18 -78 17 -94 -2z"/>
<path fill="#810000" d="M3264 2632 c-6 -4 -14 -23 -18 -42 -5 -33 -5 -33 5 -7 12 30 43 37
53 11 7 -19 4 -46 -30 -294 -27 -193 -39 -242 -66 -282 -24 -35 -33 -35 -48 1
-23 57 7 170 63 231 29 31 29 32 3 10 -72 -63 -110 -177 -82 -244 19 -46 58
-63 93 -40 32 20 50 65 63 156 6 40 13 88 16 106 4 28 7 31 24 22 31 -16 82
-11 125 13 31 18 45 35 62 77 20 49 23 52 23 25 1 -16 4 -24 7 -16 3 8 0 52
-7 99 -11 72 -17 90 -44 119 -38 42 -101 55 -141 29 -22 -15 -25 -15 -25 -1 0
9 -12 20 -26 25 -30 12 -35 12 -50 2z m213 -60 c17 -11 33 -58 33 -98 0 -72
-41 -128 -119 -160 -64 -27 -65 -26 -57 92 4 59 11 115 17 125 19 37 94 61
126 41z"/>
<path fill="#810000" d="M2691 2494 c0 -11 3 -14 6 -6 3 7 2 16 -1 19 -3 4 -6 -2 -5 -13z"/>
<path fill="#810000" d="M2391 2474 c0 -11 3 -14 6 -6 3 7 2 16 -1 19 -3 4 -6 -2 -5 -13z"/>
<path fill="#810000" d="M3561 2464 c0 -11 3 -14 6 -6 3 7 2 16 -1 19 -3 4 -6 -2 -5 -13z"/>
<path fill="#810000" d="M2681 2423 c-1 -64 22 -127 58 -152 45 -32 96 -43 137 -32 39 11 94
56 94 77 0 7 4 14 10 16 5 2 7 19 4 40 l-7 38 -27 -38 c-15 -21 -38 -45 -51
-54 -30 -19 -132 -43 -153 -35 -28 11 -50 59 -56 125 l-7 67 -2 -52z"/>
<path fill="#810000" d="M3191 2394 c0 -11 3 -14 6 -6 3 7 2 16 -1 19 -3 4 -6 -2 -5 -13z"/>
<path fill="#810000" d="M3181 2354 c0 -11 3 -14 6 -6 3 7 2 16 -1 19 -3 4 -6 -2 -5 -13z"/>
</g>
</svg>
